<svg xmlns="http://www.w3.org/2000/svg" width="650.484" height="230.642"><defs><linearGradient id="b" x1=".5" x2=".5" y2="1" gradientUnits="objectBoundingBox"><stop offset="0" stop-color="#64e8de"/><stop offset="1" stop-color="#8a64eb"/></linearGradient><linearGradient id="c" x1=".059" y1=".175" x2="1.019" y2=".774" gradientUnits="objectBoundingBox"><stop offset="0" stop-color="#8a64eb"/><stop offset="1" stop-color="#64e8de"/></linearGradient><filter id="a" x="106" y="130.642" width="438" height="100" filterUnits="userSpaceOnUse"><feOffset dy="3"/><feGaussianBlur stdDeviation="3" result="blur"/><feFlood flood-opacity=".463"/><feComposite operator="in" in2="blur"/><feComposite in="SourceGraphic"/></filter></defs><g data-name="Group 37"><g filter="url(#a)"><text data-name="loyalty program" transform="translate(115 196.64)" fill="#585858" font-size="60" font-family="Avenir-Book, Avenir"><tspan x="0" y="0">loyalty program</tspan></text></g><g data-name="Group 12"><g data-name="Icon ionic-ios-flower" transform="translate(0 44.793)" fill="url(#b)"><path data-name="Path 1" d="M65.796 35.582c-5.211 0-11.73 1.347-16.844 2.635a8.273 8.273 0 0 0-.722-1.776c4.528-2.694 10.091-6.343 13.76-10.032 7.163-7.163 9.427-12.414 7.339-14.5a2.7 2.7 0 0 0-2.01-.742c-2.694 0-7.027 2.615-12.492 8.081-3.669 3.669-7.339 9.213-10.032 13.741a8.964 8.964 0 0 0-1.776-.742c1.306-5.115 2.634-11.615 2.634-16.808C45.653 5.309 43.545 0 40.578 0s-5.075 5.309-5.075 15.439c0 5.192 1.327 11.711 2.635 16.805a8.336 8.336 0 0 0-1.776.742c-2.694-4.528-6.343-10.071-10.032-13.741-5.465-5.465-9.818-8.081-12.492-8.081a2.774 2.774 0 0 0-2.01.742c-2.108 2.108.156 7.339 7.339 14.5 3.689 3.689 9.232 7.339 13.76 10.032a8.912 8.912 0 0 0-.722 1.776c-5.114-1.308-11.633-2.635-16.844-2.635C5.251 35.579 0 37.648 0 40.615s5.25 5.114 15.4 5.114c5.211 0 11.75-1.347 16.864-2.654a8.181 8.181 0 0 0 .741 1.757c-4.548 2.694-10.11 6.363-13.8 10.052-7.163 7.163-9.427 12.414-7.339 14.5a2.7 2.7 0 0 0 2.01.742c2.694 0 7.027-2.615 12.492-8.081 3.689-3.689 7.378-9.271 10.071-13.819a8.738 8.738 0 0 0 1.757.722c-1.308 5.114-2.654 11.672-2.654 16.883 0 10.13 2.108 15.341 5.075 15.341s5.075-5.211 5.075-15.341c0-5.231-1.347-11.77-2.654-16.883a8.542 8.542 0 0 0 1.757-.722c2.694 4.548 6.363 10.13 10.071 13.819 5.465 5.465 9.818 8.081 12.492 8.081a2.774 2.774 0 0 0 2.01-.742c2.108-2.108-.156-7.339-7.339-14.5-3.689-3.689-9.271-7.358-13.8-10.052a8.791 8.791 0 0 0 .742-1.757c5.114 1.31 11.654 2.657 16.864 2.657 10.13 0 15.4-2.108 15.4-5.075-.039-2.967-5.289-5.075-15.439-5.075Z"/><path data-name="Path 2" d="M52.777 64.117a49.862 49.862 0 0 1-4.841-5.758 51.173 51.173 0 0 1 .644 7.5 55.779 55.779 0 0 1-.312 6.265c2.4 4.255 4.743 6.382 6.636 6.382a2.472 2.472 0 0 0 .917-.176c2.147-.878 2.6-4.548.878-10.6-1.248-1.036-2.555-2.246-3.922-3.613Z"/><path data-name="Path 3" d="M28.457 17.215a50.9 50.9 0 0 1 4.8 5.7 50.761 50.761 0 0 1-.622-7.457 55.775 55.775 0 0 1 .312-6.265c-2.4-4.255-4.743-6.382-6.636-6.382a2.472 2.472 0 0 0-.917.176c-2.147.878-2.6 4.548-.878 10.6a63.219 63.219 0 0 1 3.941 3.628Z"/><path data-name="Path 4" d="M17.137 52.838a49.864 49.864 0 0 1 5.758-4.841 51.171 51.171 0 0 1-7.5.644 55.775 55.775 0 0 1-6.265-.312c-4.977 2.811-7.046 5.5-6.207 7.554.507 1.249 1.971 1.932 4.314 1.932a23.544 23.544 0 0 0 6.285-1.054 64.112 64.112 0 0 1 3.615-3.923Z"/><path data-name="Path 5" d="M64.059 28.477a49.862 49.862 0 0 1-5.758 4.841 51.171 51.171 0 0 1 7.5-.644 55.773 55.773 0 0 1 6.265.312c4.977-2.811 7.046-5.5 6.207-7.554-.507-1.249-1.971-1.932-4.314-1.932a23.544 23.544 0 0 0-6.285 1.054 55.033 55.033 0 0 1-3.615 3.923Z"/><path data-name="Path 6" d="M28.419 64.118a57.565 57.565 0 0 1-4.645 4.216c-1.522 5.5-1.074 8.861.956 9.74a2.331 2.331 0 0 0 .956.2c2.01 0 4.528-2.342 7.163-7.066a64.04 64.04 0 0 1-.215-5.328 51.17 51.17 0 0 1 .644-7.5 53.581 53.581 0 0 1-4.859 5.738Z"/><path data-name="Path 7" d="M52.781 17.235a57.034 57.034 0 0 1 4.626-4.2c1.542-5.543 1.113-8.939-.937-9.8a2.331 2.331 0 0 0-.956-.2c-2.01 0-4.528 2.342-7.163 7.066a64.04 64.04 0 0 1 .215 5.328 52.169 52.169 0 0 1-.644 7.554 53.86 53.86 0 0 1 4.859-5.748Z"/><path data-name="Path 8" d="M10.072 32.904a64.04 64.04 0 0 1 5.328-.215 50.914 50.914 0 0 1 7.475.644 51.311 51.311 0 0 1-5.736-4.837 58.453 58.453 0 0 1-4.235-4.665 21.786 21.786 0 0 0-5.582-.9c-2.225 0-3.63.644-4.138 1.854-.9 2.13 1.383 5.058 6.888 8.119Z"/><path data-name="Path 9" d="M71.124 48.425a64.04 64.04 0 0 1-5.328.215 51.171 51.171 0 0 1-7.5-.644 51.9 51.9 0 0 1 5.763 4.842 61.471 61.471 0 0 1 4.216 4.645 21.215 21.215 0 0 0 5.582.917c2.225 0 3.63-.644 4.138-1.854.918-2.148-1.371-5.056-6.871-8.121Z"/></g><path data-name="Path 10" d="M63.212 48.86a43.452 43.452 0 0 0-1.89-13.395 32.074 32.074 0 0 0-4.931-9.779 20.913 20.913 0 0 0-7.067-6 18.054 18.054 0 0 0-8.3-2.054 25.893 25.893 0 0 0-9.779 1.89 19.762 19.762 0 0 0-8.136 6.245A33.18 33.18 0 0 0 17.6 37.108a61.666 61.666 0 0 0-2.054 17.175q0 33.035 24 33.035a17.139 17.139 0 0 0 9.368-2.712 24.4 24.4 0 0 0 7.477-7.806A42.5 42.5 0 0 0 61.4 64.638a63.707 63.707 0 0 0 1.812-15.778Zm14.463.493A50.534 50.534 0 0 1 74.8 66.774a41.874 41.874 0 0 1-7.89 13.559 34.245 34.245 0 0 1-11.834 8.711 35.713 35.713 0 0 1-14.71 3.041 29.771 29.771 0 0 1-14.216-3.369 26.471 26.471 0 0 1-9.615-8.136q-5.917 4.766-11.012 9.533H2.565q.329-3.945.575-9.533t.411-11.916q.164-6.328.247-12.9T3.88 43.6V13.852q0-5.588-.08-12.162t-.249-12.984Q3.387-17.7 3.14-23.538t-.575-9.943a44.224 44.224 0 0 0 7.4.822 30.5 30.5 0 0 0 3.78-.247q1.972-.246 4.273-.575-.493 3.287-.822 10.437T16.7-7.1q-.164 8.793-.329 18.079t-.329 16.846h.329q5.588-8.878 12.329-12.987a29.389 29.389 0 0 1 15.614-4.109 32.014 32.014 0 0 1 14.792 3.2A30.75 30.75 0 0 1 69.457 22.4a36.293 36.293 0 0 1 6.163 12.244 51.87 51.87 0 0 1 2.055 14.709ZM128.3 15.989a18.1 18.1 0 0 0-10.272 2.794 23.96 23.96 0 0 0-6.9 6.985 33.267 33.267 0 0 0-4.109 9.2 48.74 48.74 0 0 0-1.726 9.45q5.095.164 10.6.329t10.765.164q5.424 0 11.012-.164t10.847-.329a63.249 63.249 0 0 0-.74-9.368 29.235 29.235 0 0 0-2.958-9.2 19.628 19.628 0 0 0-6.163-7.067q-3.95-2.794-10.356-2.794ZM90.33 53.955q0-20.216 9.615-31.72t28.022-11.5a38.012 38.012 0 0 1 15.038 2.712 31.366 31.366 0 0 1 10.6 7.232 28.5 28.5 0 0 1 6.328 10.6 40.3 40.3 0 0 1 2.054 12.984q0 1.644-.082 3.2t-.247 3.2q-8.875-.164-17.586-.329t-17.586-.164q-5.424 0-10.765.164l-10.765.329a13.613 13.613 0 0 0-.164 2.465v2.137a37.207 37.207 0 0 0 1.89 12 27.269 27.269 0 0 0 5.506 9.615 26.4 26.4 0 0 0 8.875 6.41 29.2 29.2 0 0 0 12.162 2.383 26.54 26.54 0 0 0 6.739-.9 38.285 38.285 0 0 0 6.739-2.465 36.743 36.743 0 0 0 6.163-3.7 31.267 31.267 0 0 0 5.013-4.6l.822.493-.986 8.053a45.415 45.415 0 0 1-12.244 6.739 42.245 42.245 0 0 1-15.2 2.794 46.255 46.255 0 0 1-16.189-2.712 35.851 35.851 0 0 1-12.655-7.889 35.456 35.456 0 0 1-8.221-12.246 40.161 40.161 0 0 1-2.876-15.285Zm131.155-4.438a41.408 41.408 0 0 1-6.492 1.644q-3.7.657-7.478 1.4a71.138 71.138 0 0 0-7.478 1.89 24.31 24.31 0 0 0-6.574 3.123 15.212 15.212 0 0 0-4.6 4.931 14.849 14.849 0 0 0-1.726 7.56q0 7.725 4.438 11.669a14.5 14.5 0 0 0 9.861 3.945 20.157 20.157 0 0 0 11.423-3.451 25.925 25.925 0 0 0 7.971-8.053Zm-40.6-29.255a46.656 46.656 0 0 1 13.641-7.56 42.323 42.323 0 0 1 12.82-1.972 32.644 32.644 0 0 1 10.854 1.725 23.588 23.588 0 0 1 8.382 4.931A22.9 22.9 0 0 1 232 25.11a24.6 24.6 0 0 1 1.972 9.943q0 9.368-.329 18.654t-.329 19.64q0 1.972.082 4.191a12.325 12.325 0 0 0 .74 3.944 7.529 7.529 0 0 0 1.89 2.876 5.247 5.247 0 0 0 3.7 1.15q.822 0 1.726-.082a4.03 4.03 0 0 0 1.726-.575v3.616a19.44 19.44 0 0 1-4.52 1.315 33.641 33.641 0 0 1-6 .493q-5.259 0-8.053-2.712a11.183 11.183 0 0 1-3.287-6.985 44.2 44.2 0 0 1-11.669 8.711 32.178 32.178 0 0 1-14.134 2.794 28.618 28.618 0 0 1-8.053-1.15 18.435 18.435 0 0 1-6.985-3.78 20.764 20.764 0 0 1-4.931-6.328 18.339 18.339 0 0 1-1.89-8.464q0-9.861 6.163-15.285t17.011-7.232q8.875-1.479 13.888-2.548a34.907 34.907 0 0 0 7.4-2.219 5.01 5.01 0 0 0 2.876-2.712 13.661 13.661 0 0 0 .493-4.027 31.129 31.129 0 0 0-.986-7.889 18.282 18.282 0 0 0-3.123-6.574 15.78 15.78 0 0 0-5.588-4.52 18.589 18.589 0 0 0-8.382-1.726 26.078 26.078 0 0 0-12.244 2.958 19.492 19.492 0 0 0-8.464 8.218h-1.81Zm80.534 45.362q0-8.711.247-14.874t.247-12.244q0-5.752-.082-12.491t-.247-13.641a36.291 36.291 0 0 0 6.9.822 35.791 35.791 0 0 0 6.738-.822q-.822 9.861-1.233 21.613t-.411 24.078q0 8.546 1.479 13.066a17.1 17.1 0 0 0 9.45 11.176 18.714 18.714 0 0 0 8.3 1.726 20.441 20.441 0 0 0 11.5-3.041 18.643 18.643 0 0 0 6.739-7.478q1.15-2.794 1.808-4.766a28.3 28.3 0 0 0 1.068-5.259 85.332 85.332 0 0 0 .493-8.875q.082-5.588.082-15.285V25.521q0-3.616-.082-6.9t-.247-6.245q1.808.329 3.451.575a23.258 23.258 0 0 0 3.451.247 23.259 23.259 0 0 0 3.451-.247q1.644-.247 3.287-.575-.822 12.82-.986 24.735t-.164 25.228q0 7.4.164 14.463t.493 13.641q-3.287-.329-6.41-.329t-6.41.329q.164-1.479.247-3.123t.082-3.451V76.8h-.329A27.871 27.871 0 0 1 303.5 88.387a29.914 29.914 0 0 1-14.628 3.7q-12.82 0-20.133-6.821t-7.316-19.642ZM367.76-9.651q-.493 6.245-.74 12.244t-.575 12.08q1.808 0 6.739-.082t10.683-.411a6.614 6.614 0 0 0-.164 1.808v3.452a5.766 5.766 0 0 0 .164 1.644q-2.137-.164-4.438-.247t-4.931-.082h-8.053q-.164.657-.411 5.259t-.411 10.93q-.164 6.328-.247 13.231t-.081 12.325q0 4.6.247 9.039a27.1 27.1 0 0 0 1.561 7.971 12.933 12.933 0 0 0 3.944 5.67q2.63 2.137 7.56 2.137a25.44 25.44 0 0 0 3.534-.329 27.709 27.709 0 0 0 3.859-.82v3.945q-2.794.493-6.163 1.233a30.265 30.265 0 0 1-6.492.74q-10.354 0-15.285-5.095t-4.931-14.956q0-4.438.164-9.615t.411-11.34q.247-6.163.411-13.641t.164-16.682h-5.259q-1.315 0-2.794.082t-3.123.247q.164-.986.247-1.89t.082-1.89q0-.822-.082-1.644t-.247-1.644q7.4.493 10.847.493-.164-3.287-.247-8.218T353.3-3.9l13.641-5.752Zm32.707-6.574a8.069 8.069 0 0 1 2.465-5.917 8.069 8.069 0 0 1 5.917-2.465 8.069 8.069 0 0 1 5.917 2.465 8.069 8.069 0 0 1 2.465 5.917 8.069 8.069 0 0 1-2.465 5.917 8.069 8.069 0 0 1-5.917 2.465 8.069 8.069 0 0 1-5.917-2.465 8.069 8.069 0 0 1-2.465-5.917Zm2.3 59.332q0-7.4-.247-15.531t-1.068-15.2a44.227 44.227 0 0 0 7.4.822 44.227 44.227 0 0 0 7.4-.822q-.822 7.067-1.068 15.2t-.247 15.531V60.2q0 7.4.247 15.531t1.068 14.71q-3.78-.329-7.4-.329t-7.4.329q.822-6.574 1.068-14.71t.247-15.531Zm76.26-62.948a16.7 16.7 0 0 0-9.039-2.465 12.65 12.65 0 0 0-6.163 1.4 12.783 12.783 0 0 0-4.191 3.616 14.5 14.5 0 0 0-2.383 5.177 25.669 25.669 0 0 0-.74 6.245q0 2.958.575 8.546t1.4 10.683q4.273 0 8.464-.082t8.464-.082q-.164.822-.247 1.644t-.082 1.644q0 .822.082 1.644t.247 1.644q-4.273-.164-8.464-.329t-8.464-.164q0 17.915.082 35.583t.575 35.583a20.175 20.175 0 0 0-3.616-.329h-3.451q-3.451 0-7.232.329 1.15-17.915 1.315-35.418t.164-35.747q-2.958 0-5.917.164l-5.917.329q.164-.822.247-1.644t.082-1.644q0-.822-.082-1.644t-.247-1.644q2.958 0 6 .082t5.835.082A59.853 59.853 0 0 1 447.308 3a70.808 70.808 0 0 1 2.876-11.012 69.409 69.409 0 0 1 4.52-10.272 35.007 35.007 0 0 1 5.917-8.136 29.214 29.214 0 0 1 7.478-5.259 20.241 20.241 0 0 1 9.286-2.3 10.353 10.353 0 0 1 3.287.493q-.164 3.287-.411 6.574t-.247 6.574Zm34.844 110.447-4.684-11.5q-2.876-7.062-6.163-14.874-3.287-7.807-6.739-15.942T489.794 33q-3.041-7.149-5.342-12.573T481 12.373q2.137.329 3.944.575a26.73 26.73 0 0 0 3.616.247 26.728 26.728 0 0 0 3.616-.247q1.808-.247 3.945-.575 5.095 15.778 11.34 31.227t13.149 31.885q6.9-14.463 13.231-30.9T545.1 12.373a23.276 23.276 0 0 0 5.424.822 23.276 23.276 0 0 0 5.424-.822q-1.15 2.3-3.7 7.807t-6.081 13.148q-3.534 7.643-7.725 16.929T529.9 69.322q-4.355 9.779-8.629 19.394t-7.889 18.243q-3.616 8.629-6.328 15.614t-4.027 11.094a19.41 19.41 0 0 0-11.176 0 333.387 333.387 0 0 0 22.02-43.061Z" transform="translate(94.538 33.975)" fill="url(#c)"/></g></g></svg>